<svg width="90" height="28" viewBox="0 0 90 28" fill="none" xmlns="http://www.w3.org/2000/svg">
<path d="M5.33246 19.1013H0V5.52759H5.33246C9.62805 5.52759 12.6004 8.45793 12.6004 12.2703V12.3095C12.6004 16.1317 9.62805 19.0915 5.33246 19.0915V19.1013ZM9.4503 12.3193C9.4503 9.91821 7.79131 8.23252 5.33246 8.23252H3.01185V16.4159H5.33246C7.79131 16.4159 9.4503 14.7695 9.4503 12.3683V12.3291V12.3193Z" fill="#254652"/>
<path d="M24.4404 14.9262H17.1527C17.449 16.259 18.3871 16.9647 19.7103 16.9647C20.7077 16.9647 21.4286 16.651 22.2482 15.8964L23.9467 17.3861C22.9691 18.5915 21.5668 19.3266 19.6708 19.3266C16.5306 19.3266 14.2001 17.1411 14.2001 13.9559V13.9167C14.2001 10.9472 16.3331 8.50684 19.3746 8.50684C22.8703 8.50684 24.47 11.202 24.47 14.1519V14.1911C24.47 14.4851 24.4503 14.6517 24.4305 14.9262H24.4404ZM19.3845 10.8786C18.1501 10.8786 17.3502 11.7508 17.1231 13.0837H21.5964C21.4187 11.7606 20.6386 10.8786 19.3943 10.8786H19.3845Z" fill="#254652"/>
<path d="M26.5142 19.1011V4.94922H29.4865V19.1011H26.5142Z" fill="#254652"/>
<path d="M32.0046 7.56595V4.94922H35.1251V7.56595H32.0046ZM32.0836 19.1011V8.71261H35.056V19.1011H32.0836Z" fill="#254652"/>
<path d="M57.9855 14.9262H50.6978C50.9941 16.259 51.9322 16.9647 53.2554 16.9647C54.2528 16.9647 54.9737 16.651 55.7933 15.8964L57.4918 17.3861C56.5142 18.5915 55.1119 19.3266 53.2159 19.3266C50.0757 19.3266 47.7452 17.1411 47.7452 13.9559V13.9167C47.7452 10.9472 49.8782 8.50684 52.9197 8.50684C56.4154 8.50684 58.0152 11.202 58.0152 14.1519V14.1911C58.0152 14.4851 57.9954 14.6517 57.9757 14.9262H57.9855ZM52.9296 10.8786C51.6952 10.8786 50.8953 11.7508 50.6682 13.0837H55.1416C54.9638 11.7606 54.1837 10.8786 52.9394 10.8786H52.9296Z" fill="#254652"/>
<path d="M66.1225 11.5939C64.1475 11.5939 62.9428 12.7797 62.9428 15.2593V19.1011H59.9704V8.71254H62.9428V10.8098C63.5451 9.37897 64.5227 8.44792 66.2805 8.52633V11.6037H66.1225V11.5939Z" fill="#254652"/>
<path d="M77.4983 14.9262H70.2107C70.5069 16.259 71.445 16.9647 72.7683 16.9647C73.7656 16.9647 74.4865 16.651 75.3061 15.8964L77.0046 17.3861C76.027 18.5915 74.6247 19.3266 72.7288 19.3266C69.5885 19.3266 67.2581 17.1411 67.2581 13.9559V13.9167C67.2581 10.9472 69.391 8.50684 72.4325 8.50684C75.9282 8.50684 77.528 11.202 77.528 14.1519V14.1911C77.528 14.4851 77.5082 14.6517 77.4885 14.9262H77.4983ZM72.4424 10.8786C71.208 10.8786 70.4082 11.7508 70.181 13.0837H74.6544C74.4766 11.7606 73.6965 10.8786 72.4523 10.8786H72.4424Z" fill="#254652"/>
<path d="M87.0276 19.1011V17.6115C86.3068 18.5817 85.3094 19.2971 83.7689 19.2971C81.3298 19.2971 78.9993 17.3958 78.9993 13.9265V13.8873C78.9993 10.4179 81.2804 8.5166 83.7689 8.5166C85.3489 8.5166 86.3265 9.23203 87.0276 10.0651V4.94922H90V19.1011H87.0276ZM87.0671 13.8873C87.0671 12.1624 85.9118 11.0157 84.5293 11.0157C83.1468 11.0157 81.9717 12.1428 81.9717 13.8873V13.9265C81.9717 15.6514 83.1468 16.798 84.5293 16.798C85.9118 16.798 87.0671 15.6514 87.0671 13.9265V13.8873Z" fill="#254652"/>
<path d="M27.6399 27.9018L25.8822 25.5105L25.2304 26.1867V27.9018H23.9862V22.2861H25.2304V24.7363L27.5214 22.2861H29.0224L26.7216 24.6677L29.131 27.9018H27.6399Z" fill="#EA9C5F"/>
<path d="M35.4213 27.9999C33.6735 27.9999 32.4194 26.7063 32.4194 25.1088V25.0892C32.4194 23.4917 33.6834 22.1882 35.4312 22.1882C37.1791 22.1882 38.4332 23.4819 38.4332 25.0794V25.099C38.4332 26.6965 37.1593 27.9999 35.4213 27.9999ZM37.1396 25.099C37.1396 24.1385 36.4286 23.3349 35.4213 23.3349C34.4141 23.3349 33.7229 24.1189 33.7229 25.0794V25.099C33.7229 26.0594 34.4339 26.8631 35.4312 26.8631C36.4286 26.8631 37.1297 26.079 37.1297 25.1186V25.099H37.1396Z" fill="#EA9C5F"/>
<path d="M46.2147 27.9018L45.0001 26.1083H44.0224V27.9018H42.7782V22.2861H45.3654C46.6985 22.2861 47.4984 22.982 47.4984 24.1384V24.158C47.4984 25.0597 47.0047 25.6379 46.2838 25.9025L47.6663 27.9116H46.2147V27.9018ZM46.2344 24.207C46.2344 23.6778 45.8592 23.4034 45.2568 23.4034H44.0224V25.0107H45.2864C45.8888 25.0107 46.2443 24.6873 46.2443 24.2168V24.1972L46.2344 24.207Z" fill="#EA9C5F"/>
<path d="M51.8532 27.9018V22.2861H56.1192V23.3838H53.0876V24.5206H55.7538V25.6183H53.0876V26.7944H56.1587V27.892H51.8532V27.9018Z" fill="#EA9C5F"/>
<path d="M64.7202 27.902L64.2067 26.6377H61.817L61.3035 27.902H60.0297L62.4589 22.2471H63.6044L66.0336 27.902H64.7301H64.7202ZM63.002 23.7269L62.2515 25.5498H63.7525L63.002 23.7269Z" fill="#EA9C5F"/>
<path d="M51.715 0.0684444C51.8532 -0.107964 52.1297 0.0684444 52.031 0.274255L41.8697 19.5028C41.8006 19.64 41.6031 19.64 41.5339 19.5028L36.5669 9.52592C36.478 9.33971 36.7051 9.1731 36.8631 9.3005L41.1192 12.9659C41.1982 13.0345 41.3266 13.0247 41.3858 12.9365L51.715 0.0684444Z" fill="#EA9C5F"/>
</svg>
